<svg xmlns="http://www.w3.org/2000/svg" version="1.1" viewBox="-5.0 -10.0 110.0 135.0">
 <g>
  <path d="m19.699 39.898c1 0 1.6992-0.80078 1.6992-1.6992 0.20312-15.699 13-28.398 28.602-28.398s28.398 12.699 28.5 28.398c0 0.89844 0.80078 1.6992 1.6992 1.6992 1 0 1.6992-0.80078 1.6992-1.6992 0-17.598-14.398-31.801-31.898-31.801s-31.898 14.203-32 31.801c0 0.90234 0.80078 1.6992 1.6992 1.6992z"/>
  <path d="m34.199 71.898c0.69922-0.60156 0.89844-1.6992 0.30078-2.3984-0.30078-0.30078-0.60156-0.69922-0.89844-1-1.8008-1.8008-3.8984-3.1992-6.1992-4.1016 2.8984-2.1016 4.8984-5.5 4.8984-9.3984 0-6.3008-5.1992-11.5-11.5-11.5s-11.602 5.1992-11.602 11.602c0 3.8984 1.8984 7.3008 4.8984 9.3984-6.7969 2.6016-11.598 9.1992-11.598 16.898v4.6992c0 1 0.80078 1.6992 1.6992 1.6992h22.199c1 0 1.6992-0.80078 1.6992-1.6992 0-0.89844-0.80078-1.6992-1.6992-1.6992h-20.398v-3c0-8.1016 6.6016-14.801 14.699-14.801 3.8984 0 7.6016 1.5 10.398 4.3008 0.19922 0.19922 0.5 0.5 0.69922 0.69922 0.60156 0.80078 1.6016 0.90234 2.4023 0.30078zm-13.5-24.898c4.3984 0 8 3.6016 8 8s-3.6016 8-8 8c-4.3984 0-8-3.6016-8-8-0.097657-4.3984 3.5-8 8-8z"/>
  <path d="m92.199 68.5c-1.8008-1.8008-3.8984-3.1992-6.1992-4.1016 2.8984-2.1016 4.8008-5.5 4.8008-9.3008 0-6.3008-5.1992-11.5-11.5-11.5s-11.5 5.1992-11.5 11.5c0 3.8984 1.8984 7.3008 4.8984 9.3984-2.6992 1.1016-5.1992 2.8008-7.1016 5-0.60156 0.69922-0.5 1.8008 0.19922 2.3984 0.69922 0.60156 1.8008 0.5 2.3984-0.19922 2.8008-3.1992 6.8008-5.1016 11.102-5.1016 3.8984 0 7.6016 1.5 10.398 4.3008 2.8008 2.8008 4.3008 6.5 4.3008 10.398v3l-20.395 0.007812c-1 0-1.6992 0.80078-1.6992 1.6992s0.80078 1.6992 1.6992 1.6992h22.199c1 0 1.6992-0.80078 1.6992-1.6992v-4.6992c0-4.8008-1.8984-9.3008-5.3008-12.801zm-12.898-21.5c4.3984 0 8 3.6016 8 8s-3.6016 8-8 8c-4.3984 0-8-3.6016-8-8s3.5977-8 8-8z"/>
  <path d="m56.602 70.199c2.8984-2.1016 4.8984-5.5 4.8984-9.3984 0-6.3008-5.1992-11.5-11.5-11.5s-11.5 5.1992-11.5 11.5c0 3.8984 1.8984 7.3008 4.8984 9.3984-6.8008 2.6992-11.602 9.1992-11.602 16.898v4.8008c0 1 0.80078 1.6992 1.6992 1.6992h32.898c1 0 1.6992-0.80078 1.6992-1.6992v-4.8008c0.10547-7.6992-4.6953-14.199-11.492-16.898zm-6.6016-17.398c4.3984 0 8 3.6016 8 8 0 4.3984-3.6016 8-8 8s-8-3.6016-8-8c-0.10156-4.4023 3.6016-8 8-8zm14.699 37.398h-29.398v-3c0-8.1016 6.6016-14.699 14.699-14.699 8.1016 0 14.699 6.5 14.699 14.602z"/>
  <path d="m50 20.199-0.39844-0.30078c-1.8008-1.8008-4.1992-2.6016-6.6016-2.3984-2.5 0.19922-4.6992 1.5-6.1992 3.5-2.3008 3.1016-1.6992 8.1992 1.1992 11.102l10.801 10.801c0.30078 0.30078 0.80078 0.5 1.1992 0.5s0.89844-0.19922 1.1992-0.5l11-11c1.8008-1.8008 2.6016-4.1992 2.3984-6.6016-0.19922-2.5-1.5-4.6992-3.5-6.1992-3.0977-2.4023-8.1992-1.8008-11.098 1.0977zm9.6992 9.1992-9.8008 9.8008-9.5-9.5c-1.6992-1.6992-2.1016-4.8984-0.80078-6.6016 0.89844-1.1992 2.1992-2 3.6992-2.1016h0.39844c1.3008 0 2.6016 0.5 3.5 1.5l1.5 1.5c0.30078 0.30078 0.80078 0.5 1.1992 0.5 0.5 0 0.89844-0.19922 1.1992-0.5l1.3008-1.3008c1.6992-1.6992 4.8984-2.1016 6.6016-0.80078 1.1992 0.89844 2 2.1992 2.1016 3.6992 0.20312 1.3047-0.39844 2.8047-1.3984 3.8047z"/>
 </g>
<text x="0.0" y="117.5" font-size="5.0" font-weight="bold" font-family="Arbeit Regular, Helvetica, Arial-Unicode, Arial, Sans-serif" fill="#000000">Created by Adrien Coquet</text><text x="0.0" y="122.5" font-size="5.0" font-weight="bold" font-family="Arbeit Regular, Helvetica, Arial-Unicode, Arial, Sans-serif" fill="#000000">from Noun Project</text></svg>