<svg xmlns="http://www.w3.org/2000/svg" viewBox="0 0 60 75" x="0px" y="0px"><path d="M60,38a8.009,8.009,0,0,0-8-8H39.9A13.056,13.056,0,0,0,45.4,22.894,10.034,10.034,0,0,0,54,13V5a3,3,0,0,0-3-3H45.816A3,3,0,0,0,43,0H15a3,3,0,0,0-3,3V19a12.99,12.99,0,0,0,6.1,11H2a2,2,0,0,0-2,2v2a1.993,1.993,0,0,0,1,1.722v4.556A1.993,1.993,0,0,0,0,42v2a2,2,0,0,0,2,2h.726A7.989,7.989,0,0,0,8,60H58a2,2,0,0,0,2-2V56a1.993,1.993,0,0,0-1-1.722V49.722A1.993,1.993,0,0,0,60,48V46a2,2,0,0,0-2-2h-.726A7.976,7.976,0,0,0,60,38ZM52,5v8a8.032,8.032,0,0,1-6.136,7.774A12.982,12.982,0,0,0,46,19v-.356A6.009,6.009,0,0,0,50,13V8a2,2,0,0,0-2-2H46V4h5A1,1,0,0,1,52,5ZM46,16.458V8h2v5A4.007,4.007,0,0,1,46,16.458ZM14,19V3a1,1,0,0,1,1-1H43a1,1,0,0,1,1,1V19A11.013,11.013,0,0,1,33,30H25A11.013,11.013,0,0,1,14,19ZM52,36a2,2,0,0,1,0,4H3V36ZM8,54a2,2,0,0,1,0-4H57v4Zm50-8v2H8a4,4,0,0,0,0,8H58v2H8A6,6,0,0,1,8,46H58ZM8,44H2V42H52a4,4,0,0,0,0-8H2V32H52a6,6,0,0,1,0,12Z"/><path d="M17,5a1,1,0,0,0-1,1V19a1,1,0,0,0,2,0V6A1,1,0,0,0,17,5Z"/><text x="0" y="75" fill="#000000" font-size="5px" font-weight="bold" font-family="'Helvetica Neue', Helvetica, Arial-Unicode, Arial, Sans-serif">Created by Juicy Fish</text><text x="0" y="80" fill="#000000" font-size="5px" font-weight="bold" font-family="'Helvetica Neue', Helvetica, Arial-Unicode, Arial, Sans-serif">from the Noun Project</text></svg>