<svg xmlns="http://www.w3.org/2000/svg" xmlns:xlink="http://www.w3.org/1999/xlink" xml:space="preserve" version="1.1" style="shape-rendering:geometricPrecision;text-rendering:geometricPrecision;image-rendering:optimizeQuality;" viewBox="0 0 1707 2133.75" x="0px" y="0px" fill-rule="evenodd" clip-rule="evenodd"><defs><style type="text/css">
   
    .fil0 {fill:black}
   
  </style></defs><g><g><g><g><path class="fil0" d="M301 1566c-10,0 -20,-5 -23,-16 -4,-13 2,-27 16,-31 172,-61 263,-44 360,-25 158,31 337,65 966,-298 31,-18 38,-44 38,-62 0,-30 -16,-59 -41,-73 -15,-9 -42,-16 -74,3 -43,25 -82,49 -120,72 -282,168 -451,271 -845,79 -12,-5 -17,-20 -11,-32 5,-12 21,-16 32,-11 143,70 252,99 349,99 0,0 2,0 2,0 2,-2 5,-2 8,-2 0,0 1,0 1,0 27,0 42,-22 46,-43 2,-9 4,-41 -33,-54l-276 -88c-125,-41 -189,-10 -293,41 -27,13 -58,28 -93,43 -12,6 -26,0 -32,-12 -5,-13 0,-27 13,-32 33,-14 62,-28 90,-42 108,-51 186,-90 329,-44l277 87c56,18 74,67 67,108 -2,9 -4,18 -9,27 114,-24 218,-86 351,-167 39,-23 78,-47 122,-72 41,-23 85,-23 122,-3 41,24 67,68 67,116 0,43 -24,81 -64,105 -643,372 -832,336 -998,304 -91,-18 -177,-34 -336,23 -3,0 -6,0 -8,0z"/></g><g><path class="fil0" d="M262 1605l-198 0c-37,0 -64,-28 -64,-64l0 -395c0,-36 29,-64 64,-64l198 0c35,0 64,29 64,64l0 395c-2,35 -29,64 -64,64zm-198 -474c-9,0 -16,7 -16,15l0 395c0,9 7,16 16,16l198 0c7,0 15,-7 15,-16l0 -395c0,-8 -7,-15 -15,-15l-198 0z"/></g><g><path class="fil0" d="M163 1326c-41,0 -76,-34 -76,-76 0,-42 35,-76 76,-76 42,0 77,34 77,76 0,42 -35,76 -77,76zm0 -102c-15,0 -27,12 -27,27 0,16 12,28 27,28 16,0 28,-12 28,-28 0,-15 -12,-27 -28,-27z"/></g><g><path class="fil0" d="M972 970c0,0 0,0 0,0 -4,0 -7,-1 -10,-3 -1,-1 -3,-1 -4,-3 -294,-216 -451,-466 -420,-665 14,-90 65,-158 143,-185 88,-30 192,-3 288,79 96,-82 201,-111 291,-79 78,28 132,96 146,187 31,200 -126,448 -417,663 -2,2 -3,2 -5,3 -4,3 -8,3 -12,3zm-219 -818c-20,0 -39,2 -57,9 -60,21 -100,74 -111,146 -10,68 -13,309 387,609 397,-298 394,-540 384,-606 -11,-74 -53,-128 -114,-149 -77,-27 -172,3 -258,84 -1,1 -4,2 -7,4l0 0 0 0c-2,1 -6,3 -11,3 0,0 0,0 0,0 0,0 0,0 0,0 -2,0 -7,-2 -9,-3 -3,-2 -5,-3 -7,-4 -64,-61 -133,-93 -197,-93z"/></g><g><path class="fil0" d="M656 471c-11,0 -21,-9 -24,-20 -17,-84 2,-162 50,-209 42,-42 101,-57 165,-43 13,3 21,15 18,29 -3,12 -15,21 -29,18 -47,-11 -90,0 -121,29 -37,36 -50,97 -36,165 3,13 -5,26 -19,29 0,2 -3,2 -4,2z"/></g><g><path class="fil0" d="M1051 797c-7,0 -14,-3 -18,-9 -8,-9 -8,-25 3,-34 76,-67 134,-135 170,-203 7,-11 21,-17 34,-10 12,7 16,21 9,34 -39,72 -100,144 -181,215 -6,5 -11,7 -17,7z"/></g></g></g></g><text x="0" y="1722" fill="#000000" font-size="5px" font-weight="bold" font-family="'Helvetica Neue', Helvetica, Arial-Unicode, Arial, Sans-serif">Created by Muhammad Shabraiz</text><text x="0" y="1727" fill="#000000" font-size="5px" font-weight="bold" font-family="'Helvetica Neue', Helvetica, Arial-Unicode, Arial, Sans-serif">from the Noun Project</text></svg>