<svg xmlns="http://www.w3.org/2000/svg" version="1.1" viewBox="-5.0 -10.0 110.0 135.0">
 <path d="m5 50 79.91-9.918-3.3008-9.4023c-0.78125-2.2344-2.7148-3.9062-5.0352-4.3633-0.011719-0.003906-0.027344-0.003906-0.039063-0.007812l-5.0508-0.78906c-0.050781-0.007812-0.10156-0.011719-0.15625-0.011719h-7.875l-3.8984-0.99219c-0.27344-0.074219-0.56641-0.019531-0.80078 0.13672l-0.13672 0.089844c-4.3281 2.8867-8.418 5.6094-8.418 11.18 0 0.058594 0.003906 0.12109 0.015625 0.17969l0.89062 4.8711c0.058593 0.32031 0.26953 0.59375 0.57031 0.73047l4.8984 2.2344c2.1836 1.6016 2.6445 4.1836 2.6445 6.082 0 0.10156 0.015625 0.20312 0.046875 0.30078l2.1992 6.9531 0.88281 5.8594c0.4375 2.9023 2.8867 5.0117 5.8203 5.0117 2 0 3.8438-1 4.9336-2.6797l5.9844-9.207c0.058593-0.09375 0.10547-0.19531 0.13281-0.30078l2.6875-10.754c1.7422-0.37109 3.0547-1.9219 3.0547-3.7734v-1.0156c0-0.11328-0.019532-0.22266-0.054688-0.33203zm86 0c0 14.898-8.1016 28.645-21.145 35.875-0.042969 0.027344-0.14453 0.082031-0.23828 0.12891-0.003907 0-0.007813 0-0.011719 0.003906-0.003907 0-0.003907 0.003907-0.003907 0.003907-5.6602 3.0898-12.07 4.8125-18.543 4.9805-0.34766 0.011718-0.69531 0.011718-1.0547 0.011718-0.21484 0-0.43359 0-0.64844-0.011718-4.5078-0.070313-8.9492-0.875-13.168-2.3867h-0.003906c-16.258-5.8047-27.18-21.316-27.18-38.602 0-10.859 4.207-21.094 11.848-28.82 7.3516-7.4453 17.156-11.758 27.613-12.145 0.007812 0 0.015625 0.003907 0.023437 0.003907 0.003907 0 0.011719-0.003907 0.015625-0.003907 0.49219-0.019531 0.99609-0.03125 1.5-0.03125 22.605 0 41 18.395 41 41zm-2 0c0-21.496-17.484-38.988-38.98-39 0.23828 0.58594 0.5625 1.3906 1.0039 2.4766 0.25391 0.62891 0.44531 1.0977 0.46875 1.1562 1.4883 3.7383-3.9102 8.1562-4.5312 8.6484-0.09375 0.074219-0.19922 0.12891-0.30859 0.16406l-10.309 3.3711-8.4609 2.1211-0.007812 4.8398c0.48438 0.17969 0.97656 0.36328 1.4727 0.54688 4.3555 1.6016 9.293 3.418 12.633 6.7578 0.18359 0.18359 0.28906 0.4375 0.29297 0.69922 0.011718 1.3672 0.050781 13.469-1.6836 16.953-0.046875 0.09375-0.10547 0.17969-0.17969 0.25391l-8.9531 9.1602c-0.30859 1.4531-1.1406 4.4414-4.5703 4.4414-0.15625 0-0.3125-0.035156-0.44922-0.10547l-2.2812-1.1523c-0.33594-0.16797-0.55078-0.51562-0.55078-0.89453v-6.7852l-1.1602-8.8789-6.5469-5.4609c-0.18359-0.15234-0.30469-0.36719-0.34375-0.60156l-0.33984-2c-0.51172-3.0586 1.7578-6.0156 3.5781-8.3906 0.32031-0.41406 0.62891-0.82031 0.91016-1.207l1.6016-2.2031 1.1484-2.9727-1.5039-7.9492c-6.4258 7.1602-9.9414 16.324-9.9414 26.004 0 16.008 9.8516 30.418 24.645 36.266h0.011718c0.33203-1.6211 1.3008-3.5508 2.6289-4.5625 0.91016-0.69141 1.7344-0.76172 2.3242-0.66016l5.332-1.0664 5.5703-3.3984c0.15625-0.09375 0.33594-0.14844 0.51953-0.14844h5.7109c0.082031 0 0.16016 0.011719 0.24219 0.03125l1.8906 0.46875c0.82813 0.20703 1.6445 0.33594 2.4336 0.45703 2.2227 0.34375 4.5234 0.70312 6.2852 2.8984 0.078126 0.097656 0.13672 0.21094 0.17578 0.32812l0.94531 3.043c11.941-7.0273 19.289-19.82 19.289-33.656zm-83.289 0.71094c0.089843-0.097657 0.16016-0.21094 0.21094-0.33203s0.082031-0.25 0.082031-0.37891-0.03125-0.26172-0.082031-0.37891c-0.050781-0.12891-0.12109-0.23047-0.21094-0.33203-0.10156-0.089843-0.21094-0.16016-0.33203-0.21094-0.37109-0.16016-0.80859-0.070313-1.0898 0.21094-0.089843 0.10156-0.16016 0.21094-0.21094 0.33203s-0.078125 0.25-0.078125 0.37891 0.019531 0.26172 0.078125 0.37891c0.050781 0.12109 0.12109 0.23047 0.21094 0.33203 0.19141 0.19141 0.44141 0.28906 0.71094 0.28906s0.51953-0.097656 0.71094-0.28906zm-0.54297-3.6328c0.51953 0 0.94922-0.39844 1-0.91797 0.039062-0.55078-0.35938-1.0312-0.91016-1.082-0.55078-0.050781-1.0391 0.35938-1.0898 0.91016-0.039063 0.55078 0.35938 1.0312 0.91016 1.082 0.03125 0 0.058594 0.011719 0.089844 0.011719zm0.51172-3.8984c0.46875 0 0.89844-0.33984 0.98047-0.82031 0.10156-0.55078-0.26953-1.0703-0.80859-1.1602-0.55078-0.097657-1.0703 0.26953-1.1602 0.80859-0.089844 0.53906 0.26953 1.0586 0.80859 1.1602 0.058594 0.011719 0.12109 0.011719 0.17969 0.011719zm0.83984-3.8281c0.44141 0 0.84766-0.28906 0.96875-0.73828 0.14062-0.53125-0.17969-1.082-0.71094-1.2188-0.53125-0.15234-1.082 0.16797-1.2188 0.69922-0.15234 0.53906 0.16797 1.0898 0.69922 1.2305 0.089844 0.019531 0.17969 0.03125 0.26172 0.03125zm1.1797-3.7422c0.41016 0 0.78906-0.25 0.94141-0.66016 0.19141-0.51953-0.078125-1.0898-0.59766-1.2812-0.51953-0.19141-1.0898 0.082031-1.2812 0.60156-0.19141 0.51953 0.082031 1.0898 0.60156 1.2812 0.10938 0.039063 0.23047 0.058594 0.33984 0.058594zm1.5-3.6211c0.37891 0 0.73828-0.21875 0.91016-0.58203 0.23047-0.5 0.019531-1.0977-0.48047-1.332-0.51172-0.23828-1.1016-0.019531-1.332 0.48047-0.23828 0.5-0.019531 1.0977 0.48047 1.332 0.14062 0.070312 0.28125 0.097656 0.41797 0.097656zm1.8203-3.4883c0.33984 0 0.67969-0.16797 0.85938-0.48828 0.28125-0.48047 0.12109-1.0898-0.35938-1.3672-0.48047-0.28125-1.0898-0.10938-1.3711 0.35938-0.28125 0.48047-0.10938 1.0898 0.37109 1.3711 0.14844 0.089844 0.32812 0.12891 0.5 0.12891zm2.1094-3.3008c0.30859 0 0.62109-0.15234 0.82031-0.42969 0.30859-0.44922 0.19922-1.0703-0.25-1.3906-0.44922-0.32031-1.082-0.21094-1.3906 0.23828-0.32031 0.46094-0.21094 1.082 0.23828 1.3906 0.17969 0.13281 0.37891 0.19141 0.58203 0.19141zm2.3906-3.1211c0.28125 0 0.57031-0.12109 0.76172-0.34766 0.35938-0.42969 0.30078-1.0586-0.12109-1.4102-0.41797-0.35937-1.0508-0.30078-1.4102 0.12109-0.35156 0.41797-0.30078 1.0586 0.12109 1.4102 0.19141 0.16016 0.42188 0.23047 0.65234 0.23047zm2.6484-2.8867c0.25 0 0.51172-0.10156 0.71094-0.28906 0.39062-0.39062 0.39062-1.0312-0.011718-1.418-0.39063-0.39062-1.0195-0.39062-1.4102 0-0.39062 0.39844-0.39062 1.0312 0 1.418 0.19922 0.19141 0.44922 0.28906 0.71094 0.28906zm2.8906-2.6523c0.23047 0 0.46094-0.082031 0.64062-0.23828 0.42969-0.34766 0.48047-0.98047 0.12109-1.3984-0.35156-0.42969-0.98047-0.48047-1.3984-0.12891-0.42969 0.35937-0.48047 0.98828-0.12891 1.4102 0.19922 0.23828 0.48828 0.35938 0.76953 0.35938zm3.1094-2.3906c0.19922 0 0.39844-0.058594 0.57031-0.19141 0.46094-0.30859 0.57031-0.94141 0.25-1.3906-0.32031-0.44922-0.94141-0.55859-1.3984-0.23828-0.44922 0.30859-0.55859 0.94141-0.23828 1.3906 0.19922 0.28125 0.51172 0.42969 0.82031 0.42969zm3.3125-2.1172c0.16797 0 0.33984-0.039062 0.5-0.12891 0.46875-0.28125 0.64062-0.89062 0.35938-1.3711-0.26953-0.48047-0.89062-0.64062-1.3594-0.35938-0.48047 0.26953-0.65234 0.89062-0.37109 1.3594 0.19141 0.32031 0.51953 0.5 0.87109 0.5zm3.4688-1.8125c0.14844 0 0.28906-0.03125 0.42969-0.097656 0.5-0.23047 0.71094-0.83203 0.48047-1.332s-0.83203-0.71094-1.332-0.48047c-0.5 0.23047-0.71875 0.83203-0.48047 1.332 0.16797 0.35938 0.53125 0.57812 0.89844 0.57812zm3.6289-1.5078c0.10938 0 0.23047-0.019532 0.33984-0.058594 0.51953-0.19141 0.78906-0.76172 0.60156-1.2812-0.19141-0.51953-0.76953-0.78906-1.2812-0.59766-0.51953 0.19141-0.78906 0.76953-0.60156 1.2812 0.15234 0.41016 0.53125 0.66016 0.94141 0.66016zm3.7422-1.1797c0.089844 0 0.16797-0.011719 0.26172-0.03125 0.53125-0.14844 0.85156-0.69922 0.69922-1.2305-0.14062-0.53125-0.67969-0.85156-1.2188-0.69922-0.53125 0.14063-0.85156 0.67969-0.71094 1.2188 0.12109 0.44922 0.53125 0.73828 0.96875 0.73828zm3.8281-0.85156c0.050781 0 0.10937 0 0.16797-0.011719 0.55078-0.097657 0.91016-0.62109 0.80859-1.1602-0.089844-0.55078-0.60938-0.91016-1.1484-0.80859-0.55078 0.089843-0.91016 0.60938-0.80859 1.1602 0.082031 0.48047 0.5 0.82031 0.98047 0.82031zm3.8906-0.51172h0.089844c0.55078-0.050781 0.96094-0.53906 0.91016-1.0898-0.050781-0.55078-0.53906-0.94922-1.0898-0.91016-0.55078 0.050781-0.94922 0.53906-0.91016 1.0898 0.050782 0.51953 0.48828 0.91016 1 0.91016zm4.3398-0.25c0.12109-0.050781 0.23047-0.12109 0.33203-0.21094 0.089843-0.097656 0.16016-0.21094 0.21094-0.33203 0.058594-0.12109 0.082031-0.25 0.082031-0.37891 0-0.26172-0.10938-0.51953-0.28906-0.71094-0.10156-0.089844-0.19922-0.16016-0.33203-0.21094-0.23828-0.10938-0.51953-0.10938-0.76172 0-0.12891 0.050781-0.23047 0.12109-0.32812 0.21094-0.17969 0.19141-0.28906 0.44922-0.28906 0.71094 0 0.12891 0.03125 0.26172 0.078125 0.37891 0.050781 0.12109 0.12109 0.23047 0.21094 0.33203 0.097656 0.089844 0.21094 0.16016 0.32812 0.21094 0.12109 0.050781 0.25 0.082031 0.37891 0.082031s0.26172-0.03125 0.37891-0.082031zm45.332 44.793c0.089843-0.097657 0.16016-0.21094 0.21094-0.33203 0.058594-0.12109 0.082031-0.25 0.082031-0.37891s-0.03125-0.26172-0.082031-0.37891c-0.050781-0.12109-0.12109-0.23047-0.21094-0.33203-0.37891-0.37109-1.0508-0.37109-1.418 0-0.089844 0.10156-0.16016 0.19922-0.21094 0.33203-0.050781 0.12109-0.078125 0.25-0.078125 0.37891s0.03125 0.26172 0.078125 0.37891c0.050781 0.12109 0.12109 0.23047 0.21094 0.33203 0.19141 0.19141 0.44141 0.28906 0.71094 0.28906 0.26953 0 0.51953-0.097656 0.71094-0.28906zm-41.75 45.117c0.03125 0 0.058593 0 0.089843-0.011719 0.55078-0.050781 0.94922-0.53125 0.91016-1.082-0.050782-0.55078-0.53906-0.96094-1.0898-0.91016-0.55078 0.050781-0.94922 0.53125-0.91016 1.0898 0.050781 0.51953 0.48828 0.91016 1 0.91016zm3.8867-0.50781c0.058594 0 0.10938-0.011718 0.17188-0.019531 0.55078-0.089843 0.91016-0.60938 0.80859-1.1602-0.089844-0.53906-0.60938-0.90234-1.1484-0.80859-0.55078 0.10156-0.91016 0.62109-0.80859 1.1602 0.082031 0.48047 0.5 0.83203 0.98047 0.83203zm3.832-0.85156c0.089843 0 0.16797-0.011719 0.26172-0.039062 0.53125-0.14063 0.85156-0.69141 0.71094-1.2188-0.14844-0.53125-0.69922-0.84766-1.2305-0.71094-0.53125 0.15234-0.85156 0.69141-0.71094 1.2305 0.12109 0.44141 0.53125 0.73828 0.96875 0.73828zm3.7383-1.1797c0.12109 0 0.23047-0.019531 0.33984-0.058593 0.51953-0.19141 0.78906-0.76953 0.60156-1.2812-0.19141-0.53125-0.76172-0.78906-1.2812-0.59766-0.51953 0.19141-0.78906 0.76172-0.59766 1.2812 0.14844 0.41016 0.53125 0.66016 0.94141 0.66016zm3.6328-1.5078c0.14062 0 0.28125-0.03125 0.41797-0.089844 0.5-0.23828 0.71094-0.83203 0.48047-1.332s-0.83203-0.71875-1.332-0.48047c-0.5 0.23047-0.71875 0.83203-0.48047 1.332 0.17188 0.35937 0.53125 0.57031 0.91016 0.57031zm3.4688-1.8125c0.16797 0 0.34766-0.050781 0.5-0.14062 0.48047-0.28125 0.64844-0.89062 0.37109-1.3711-0.28125-0.46875-0.89062-0.64062-1.3711-0.35938s-0.64062 0.89062-0.35938 1.3672c0.17969 0.32031 0.51953 0.5 0.85938 0.5zm3.3086-2.1172c0.19922 0 0.40234-0.050781 0.58203-0.17969 0.44922-0.32031 0.55078-0.94141 0.23828-1.3906-0.32031-0.44922-0.94141-0.55859-1.3906-0.25-0.46094 0.32031-0.57031 0.94922-0.25 1.4023 0.19922 0.28125 0.51172 0.41797 0.82031 0.41797zm3.1133-2.3906c0.23047 0 0.46094-0.082032 0.64062-0.23047 0.42969-0.35938 0.48047-0.98828 0.12891-1.4102-0.35938-0.42969-0.98828-0.48047-1.4102-0.12891-0.42969 0.35938-0.48047 0.98828-0.12891 1.418 0.19922 0.23047 0.48047 0.34766 0.76953 0.34766zm2.8867-2.6523c0.26172 0 0.51172-0.10156 0.71094-0.30078 0.39063-0.39062 0.39063-1.0195 0-1.4102-0.39062-0.39062-1.0195-0.39062-1.4219 0-0.39063 0.39062-0.39063 1.0312 0 1.4102 0.19922 0.19922 0.46094 0.30078 0.71094 0.30078zm2.6523-2.8906c0.28906 0 0.57031-0.12891 0.76953-0.35938 0.34766-0.42969 0.30078-1.0586-0.12109-1.4102-0.42969-0.35938-1.0586-0.30078-1.4102 0.12109-0.35938 0.41797-0.30078 1.0586 0.12109 1.4102 0.19141 0.16016 0.41797 0.23828 0.64062 0.23828zm2.3906-3.1172c0.32031 0 0.62891-0.14844 0.82031-0.41797 0.32031-0.46094 0.21094-1.082-0.23828-1.3984-0.46094-0.30859-1.082-0.19922-1.3984 0.25-0.30859 0.44922-0.19922 1.0703 0.25 1.3906 0.16797 0.12109 0.37109 0.17969 0.57031 0.17969zm2.1094-3.3125c0.34766 0 0.67969-0.17969 0.87109-0.5 0.28125-0.48047 0.10938-1.0898-0.37109-1.3594-0.48047-0.28125-1.082-0.12109-1.3594 0.35938-0.28125 0.48047-0.12109 1.0898 0.35938 1.3711 0.16016 0.089844 0.33203 0.12891 0.5 0.12891zm1.8203-3.4805c0.37109 0 0.73047-0.21094 0.89844-0.57031 0.23828-0.5 0.019531-1.1016-0.48047-1.332-0.5-0.23828-1.0898-0.019531-1.332 0.48047-0.23047 0.5-0.019531 1.0898 0.48047 1.332 0.14062 0.058593 0.28125 0.089843 0.42969 0.089843zm1.5-3.6172c0.41016 0 0.78906-0.25 0.94141-0.66016 0.19141-0.51953-0.082032-1.0898-0.60156-1.2812-0.51953-0.19141-1.0898 0.082031-1.2812 0.59766-0.19141 0.51953 0.082031 1.0898 0.60156 1.2812 0.10937 0.039063 0.23047 0.058594 0.33984 0.058594zm1.1797-3.7422c0.44141 0 0.83984-0.30078 0.96094-0.73828v-0.011718c0.14844-0.53125-0.16797-1.082-0.69922-1.2188-0.53906-0.14063-1.0898 0.16797-1.2305 0.71094-0.14062 0.53125 0.17969 1.0781 0.71094 1.2188 0.089844 0.03125 0.16797 0.039063 0.26172 0.039063zm0.84766-3.8398c0.46875 0 0.89062-0.33984 0.98047-0.82031 0.089844-0.55078-0.26953-1.0703-0.80859-1.1602-0.55078-0.097656-1.0703 0.26953-1.1602 0.80859-0.10156 0.55078 0.26953 1.0586 0.80859 1.1602 0.058593 0.011719 0.12109 0.011719 0.17969 0.011719zm0.5-3.8906c0.51172 0 0.94922-0.39062 1-0.91016 0.050781-0.55078-0.35938-1.0312-0.91016-1.0781-0.55078-0.050782-1.0391 0.35937-1.082 0.91016-0.050782 0.55078 0.35156 1.0312 0.91016 1.082h0.078125zm-44.449 41c0.12109-0.050781 0.23047-0.12109 0.33203-0.21094 0.19141-0.19141 0.28906-0.44922 0.28906-0.71094 0-0.26172-0.10938-0.51953-0.28906-0.71094-0.37891-0.37109-1.0391-0.37109-1.418 0-0.17969 0.19141-0.28906 0.44922-0.28906 0.71094 0 0.26953 0.097656 0.51953 0.28906 0.71094 0.19141 0.19141 0.44141 0.28906 0.71094 0.28906 0.12891 0 0.26172-0.03125 0.37891-0.082032zm44.621-45.918"/>
<text x="0.0" y="117.5" font-size="5.0" font-weight="bold" font-family="Arbeit Regular, Helvetica, Arial-Unicode, Arial, Sans-serif" fill="#000000">Created by Valter Bispo</text><text x="0.0" y="122.5" font-size="5.0" font-weight="bold" font-family="Arbeit Regular, Helvetica, Arial-Unicode, Arial, Sans-serif" fill="#000000">from Noun Project</text></svg>