<svg xmlns="http://www.w3.org/2000/svg" xmlns:xlink="http://www.w3.org/1999/xlink" version="1.1" x="0px" y="0px" viewBox="0 0 24 30" enable-background="new 0 0 24 24" xml:space="preserve"><g><g><path d="M12,23.868C5.456,23.868,0.132,18.544,0.132,12S5.456,0.132,12,0.132S23.868,5.456,23.868,12S18.544,23.868,12,23.868z     M12,1.432C6.173,1.432,1.433,6.173,1.433,12S6.173,22.568,12,22.568S22.567,17.827,22.567,12S17.827,1.432,12,1.432z"/></g><g><path d="M13.218,13.462c-0.127,0-0.256-0.037-0.368-0.115L6.779,9.16c-0.296-0.204-0.37-0.609-0.166-0.904    c0.203-0.294,0.609-0.37,0.904-0.166l6.07,4.188c0.296,0.204,0.37,0.609,0.166,0.904C13.628,13.364,13.425,13.462,13.218,13.462z"/></g><g><path d="M10.688,13.462c-0.217,0-0.429-0.108-0.553-0.306c-0.189-0.305-0.097-0.706,0.208-0.896l7.703-4.806    c0.303-0.192,0.704-0.097,0.896,0.207c0.189,0.305,0.097,0.706-0.208,0.896l-7.703,4.806    C10.925,13.43,10.806,13.462,10.688,13.462z"/></g><g><g><path d="M12,4.129c-0.359,0-0.65-0.291-0.65-0.65V2.646c0-0.359,0.291-0.65,0.65-0.65s0.65,0.291,0.65,0.65v0.833     C12.65,3.838,12.359,4.129,12,4.129z"/></g><g><path d="M12,22.004c-0.359,0-0.65-0.291-0.65-0.65v-0.833c0-0.359,0.291-0.65,0.65-0.65s0.65,0.291,0.65,0.65v0.833     C12.65,21.713,12.359,22.004,12,22.004z"/></g></g><g><g><path d="M5.975,6.625c-0.166,0-0.333-0.063-0.46-0.19L4.926,5.845C4.672,5.591,4.673,5.179,4.927,4.926     c0.252-0.253,0.665-0.253,0.919,0l0.589,0.589c0.254,0.254,0.253,0.666-0.001,0.919C6.308,6.561,6.141,6.625,5.975,6.625z"/></g><g><path d="M18.614,19.264c-0.166,0-0.333-0.063-0.46-0.19l-0.589-0.589c-0.254-0.254-0.253-0.666,0.001-0.919     c0.252-0.253,0.665-0.253,0.919,0l0.589,0.589c0.254,0.254,0.253,0.666-0.001,0.919C18.947,19.201,18.78,19.264,18.614,19.264z"/></g></g><g><g><path d="M3.479,12.65H2.646c-0.359,0-0.65-0.291-0.65-0.65s0.291-0.65,0.65-0.65h0.834c0.359,0,0.65,0.291,0.65,0.65     S3.839,12.65,3.479,12.65z"/></g><g><path d="M21.354,12.65h-0.834c-0.359,0-0.65-0.291-0.65-0.65s0.291-0.65,0.65-0.65h0.834c0.359,0,0.65,0.291,0.65,0.65     S21.714,12.65,21.354,12.65z"/></g></g><g><g><path d="M5.386,19.264c-0.166,0-0.332-0.063-0.459-0.19c-0.254-0.254-0.255-0.666-0.001-0.919l0.589-0.589     c0.254-0.254,0.665-0.253,0.919,0c0.254,0.254,0.255,0.666,0.001,0.919l-0.589,0.589C5.719,19.201,5.552,19.264,5.386,19.264z"/></g><g><path d="M18.025,6.625c-0.166,0-0.332-0.063-0.459-0.19c-0.254-0.254-0.255-0.666-0.001-0.919l0.589-0.589     c0.254-0.254,0.665-0.253,0.919,0c0.254,0.254,0.255,0.666,0.001,0.919l-0.589,0.589C18.358,6.561,18.191,6.625,18.025,6.625z"/></g></g></g><text x="0" y="39" fill="#000000" font-size="5px" font-weight="bold" font-family="'Helvetica Neue', Helvetica, Arial-Unicode, Arial, Sans-serif">Created by Atif Arshad</text><text x="0" y="44" fill="#000000" font-size="5px" font-weight="bold" font-family="'Helvetica Neue', Helvetica, Arial-Unicode, Arial, Sans-serif">from the Noun Project</text></svg>