<svg xmlns="http://www.w3.org/2000/svg" version="1.1" viewBox="-5.0 -10.0 110.0 135.0">
 <path d="m56.484 64.844c3.2031-2.1094 5.2344-5.7031 5.2344-9.7656 0-6.4844-5.3125-11.797-11.797-11.797s-11.797 5.3125-11.797 11.797c0 4.0625 2.1094 7.6562 5.2344 9.7656-7.1875 2.6562-12.344 9.5312-12.344 17.656v3.4375c0 2.5781 2.1094 4.6875 4.6875 4.6875h28.281c2.5781 0 4.6875-2.1094 4.6875-4.6875v-3.4375c0.15625-8.125-5-15-12.188-17.656zm-15.156-9.8438c0-4.7656 3.9062-8.6719 8.6719-8.6719s8.6719 3.9062 8.6719 8.6719-3.9062 8.6719-8.6719 8.6719-8.6719-3.8281-8.6719-8.6719zm24.375 30.938c0 0.85938-0.70312 1.5625-1.5625 1.5625h-28.281c-0.85938 0-1.5625-0.70312-1.5625-1.5625v-3.4375c0-8.6719 7.0312-15.703 15.703-15.703s15.703 7.0312 15.703 15.703z"/>
 <path d="m76.016 9.375h-52.031c-2.5781 0-4.6875 2.1094-4.6875 4.6875v21.484c0 2.5781 2.1094 4.6875 4.6875 4.6875h2.2656l6.1719 7.7344c0.3125 0.39062 0.78125 0.625 1.25 0.625 0.15625 0 0.23438 0 0.39062-0.078125 0.625-0.15625 1.0156-0.625 1.1719-1.1719l1.4062-7.0312h39.453c2.5781 0 4.6875-2.1094 4.6875-4.6875v-21.562c-0.078125-2.5781-2.1875-4.6875-4.7656-4.6875zm1.5625 26.172c0 0.85938-0.70312 1.5625-1.5625 1.5625h-39.375c-1.4844 0-2.7344 1.0938-3.0469 2.5l-0.78125 3.75-4.1406-5.0781c-0.625-0.78125-1.4844-1.1719-2.4219-1.1719h-2.2656c-0.85938 0-1.5625-0.70312-1.5625-1.5625v-21.484c0-0.85938 0.70312-1.5625 1.5625-1.5625h52.031c0.85938 0 1.5625 0.70312 1.5625 1.5625z"/>
 <path d="m38.828 21.875-3.3594-0.46875-1.4844-3.0469c-0.23438-0.54688-0.78125-0.85938-1.4062-0.85938s-1.1719 0.3125-1.4062 0.85938l-1.4844 3.0469-3.3594 0.46875c-0.625 0.078125-1.0938 0.46875-1.25 1.0938-0.15625 0.54688 0 1.1719 0.39062 1.6406l2.4219 2.3438-0.54688 3.3594c-0.078125 0.625 0.15625 1.1719 0.625 1.5625 0.46875 0.3125 1.0938 0.39062 1.6406 0.15625l3.0469-1.5625 3.0469 1.5625c0.23438 0.15625 0.46875 0.15625 0.70312 0.15625 0.3125 0 0.625-0.078125 0.9375-0.3125 0.46875-0.3125 0.70312-0.9375 0.625-1.5625l-0.54688-3.3594 2.4219-2.3438c0.39062-0.39062 0.54688-1.0156 0.39062-1.6406-0.3125-0.54688-0.78125-1.0156-1.4062-1.0938zm-4.2969 3.3594c-0.39062 0.39062-0.54688 0.85938-0.46875 1.4062l0.15625 1.0156-0.9375-0.46875c-0.23438-0.15625-0.46875-0.15625-0.70312-0.15625s-0.46875 0.078125-0.70312 0.15625l-0.9375 0.46875 0.15625-1.0156c0.078125-0.46875-0.078125-1.0156-0.46875-1.4062l-0.78125-0.70312 1.0156-0.15625c0.54688-0.078125 0.9375-0.39062 1.1719-0.85938l0.46875-0.9375 0.46875 0.9375c0.23438 0.46875 0.70312 0.78125 1.1719 0.85938l1.0156 0.15625z"/>
 <path d="m56.25 21.875-3.3594-0.46875-1.4844-3.0469c-0.23438-0.54688-0.78125-0.85938-1.4062-0.85938s-1.1719 0.3125-1.4062 0.85938l-1.4844 3.0469-3.3594 0.46875c-0.625 0.078125-1.0938 0.46875-1.25 1.0938-0.15625 0.54688 0 1.1719 0.39062 1.6406l2.4219 2.3438-0.54688 3.3594c-0.078125 0.625 0.15625 1.1719 0.625 1.5625 0.46875 0.3125 1.0938 0.39062 1.6406 0.15625l3.0469-1.5625 3.0469 1.5625c0.23438 0.15625 0.46875 0.15625 0.70312 0.15625 0.3125 0 0.625-0.078125 0.9375-0.3125 0.46875-0.3125 0.70312-0.9375 0.625-1.5625l-0.70312-3.3594 2.4219-2.3438c0.39062-0.39062 0.54688-1.0156 0.39062-1.6406-0.15625-0.54688-0.625-1.0156-1.25-1.0938zm-4.2969 3.3594c-0.39062 0.39062-0.54688 0.85938-0.46875 1.4062l0.15625 1.0156-0.9375-0.46875c-0.23438-0.15625-0.46875-0.15625-0.70312-0.15625s-0.46875 0.078125-0.70312 0.15625l-0.9375 0.46875 0.15625-1.0156c0.078125-0.46875-0.078125-1.0156-0.46875-1.4062l-0.78125-0.70312 1.0156-0.15625c0.54688-0.078125 0.9375-0.39062 1.1719-0.85938l0.46875-0.9375 0.46875 0.9375c0.23438 0.46875 0.70312 0.78125 1.1719 0.85938l1.0156 0.15625z"/>
 <path d="m73.672 21.875-3.3594-0.46875-1.4844-3.0469c-0.23438-0.54688-0.78125-0.85938-1.4062-0.85938s-1.1719 0.3125-1.4062 0.85938l-1.4844 3.0469-3.3594 0.46875c-0.625 0.078125-1.0938 0.46875-1.25 1.0938-0.15625 0.54688 0 1.1719 0.39062 1.6406l2.4219 2.3438-0.54688 3.3594c-0.078125 0.625 0.15625 1.1719 0.625 1.5625 0.46875 0.3125 1.0938 0.39062 1.6406 0.15625l3.0469-1.5625 3.0469 1.5625c0.23438 0.15625 0.46875 0.15625 0.70312 0.15625 0.3125 0 0.625-0.078125 0.9375-0.3125 0.46875-0.3125 0.70312-0.9375 0.625-1.5625l-0.54688-3.3594 2.4219-2.3438c0.39062-0.39062 0.54688-1.0156 0.39062-1.6406-0.3125-0.54688-0.78125-1.0156-1.4062-1.0938zm-4.2969 3.3594c-0.39062 0.39062-0.54688 0.85938-0.46875 1.4062l0.15625 1.0156-0.9375-0.46875c-0.23438-0.15625-0.46875-0.15625-0.70312-0.15625s-0.46875 0.078125-0.70312 0.15625l-0.9375 0.46875 0.15625-1.0156c0.078125-0.46875-0.078125-1.0156-0.46875-1.4062l-0.78125-0.70312 1.0156-0.15625c0.54688-0.078125 0.9375-0.39062 1.1719-0.85938l0.46875-0.9375 0.46875 0.9375c0.23438 0.46875 0.70312 0.78125 1.1719 0.85938l1.0156 0.15625z"/>
<text x="0.0" y="117.5" font-size="5.0" font-weight="bold" font-family="Arbeit Regular, Helvetica, Arial-Unicode, Arial, Sans-serif" fill="#000000">Created by Cinta Angelia</text><text x="0.0" y="122.5" font-size="5.0" font-weight="bold" font-family="Arbeit Regular, Helvetica, Arial-Unicode, Arial, Sans-serif" fill="#000000">from Noun Project</text></svg>