<?xml version="1.0" ?><!-- Uploaded to: SVG Repo, www.svgrepo.com, Generator: SVG Repo Mixer Tools -->
<svg fill="#000000" width="800px" height="800px" viewBox="0 0 32 32" xmlns="http://www.w3.org/2000/svg"><title/><path d="M6.509,28.871a1,1,0,0,0,1.01-.016L16,23.715l8.481,5.14A1,1,0,0,0,26,28V5a1,1,0,0,0-1-1H7A1,1,0,0,0,6,5V28A1,1,0,0,0,6.509,28.871ZM8,6H24V26.225L16.519,21.69a1,1,0,0,0-1.037,0L8,26.225Zm8.21,13.28a1,1,0,0,0,.588-.191A16.842,16.842,0,0,0,20.42,15.5a4.863,4.863,0,0,0,1.209-3.973,3.373,3.373,0,0,0-3.475-2.551A3.291,3.291,0,0,0,16,10.068a3.291,3.291,0,0,0-2.154-1.087,3.363,3.363,0,0,0-3.475,2.551,4.864,4.864,0,0,0,1.209,3.973A16.851,16.851,0,0,0,15.2,19.089a1,1,0,0,0,.588.191Zm-3.024-4.968a3.089,3.089,0,0,1-.863-2.341,1.365,1.365,0,0,1,1.271-1c.028,0,.058,0,.087,0a1.358,1.358,0,0,1,1.175,1.208,1,1,0,0,0,1,.945h.295a1,1,0,0,0,1-.945,1.283,1.283,0,0,1,2.532-.211,3.088,3.088,0,0,1-.863,2.341A14.83,14.83,0,0,1,16,17.188,14.841,14.841,0,0,1,13.186,14.313Z"/></svg>